<svg height="512pt" viewBox="0 0 512.00199 512" width="512pt" xmlns="http://www.w3.org/2000/svg"><path d="m494.339844 208.804688c15.988281-15.988282 17.53125-46.320313 17.65625-49.726563.101562-2.777344-.957032-5.46875-2.921875-7.433594-1.964844-1.964843-4.671875-3.039062-7.433594-2.921875-2.292969.082032-16.777344.816406-30.878906 6.152344 3.164062-8.882812 6.113281-17.894531 8.828125-27.027344.285156-.960937.414062-1.925781.410156-2.878906.148438-.199219 22.003906-35.191406 22.003906-56.800781 0-21.144531-18.949218-58.550781-21.109375-62.746094-1.714843-3.328125-5.148437-5.421875-8.890625-5.421875-3.746094 0-7.175781 2.09375-8.890625 5.421875-2.054687 3.984375-19.21875 37.878906-20.957031 59.394531-13.828125-4.941406-27.773438-5.097656-29.980469-5.097656-5.492187.019531-9.933593 4.464844-9.957031 9.957031-.015625 3.308594.332031 32.800781 16.480469 48.949219 10.292969 10.292969 26.527343 14.59375 37.699219 16.390625-4.769532 14.625-10.085938 28.652344-15.875 42.101563-4.464844-9.742188-10.390626-20.5-17.40625-28.144532-16.824219-18.328125-48.980469-20.105468-52.59375-20.25-2.773438-.101562-5.472657.941406-7.441407 2.898438-1.972656 1.960937-3.039062 4.648437-2.949219 7.425781.128907 3.851563 1.730469 38.128906 18.253907 56.132813 10.695312 11.648437 30.574219 16.007812 45.003906 17.628906-9.171875 17.226562-19.132813 33.378906-29.691406 48.519531-.355469-9.761719-2-19.765625-6.199219-27.5625-11.507812-21.34375-47.078125-35.359375-51.097656-36.886719-2.746094-1.042968-5.8125-.824218-8.386719.59375-2.570313 1.421875-4.390625 3.898438-4.96875 6.78125-.867187 4.292969-8.121094 42.570313 3.332031 63.820313 7.632813 14.167969 25.703125 24.855469 38.210938 30.894531-11.382813 13.3125-23.191406 25.6875-35.238282 37.167969-2.894531 1.378906-5.753906 2.964843-8.550781 4.707031 2.5-8.933594 3.75-18.003906 2.5625-26.234375-4.351562-30.058594-43.179687-62.464844-47.589843-66.058594-2.171876-1.769531-4.976563-2.546875-7.75-2.148437-2.769532.402344-5.242188 1.945312-6.824219 4.253906-3.210938 4.699219-31.261719 46.78125-26.910157 76.839844 3.136719 21.691406 24.125 44.171875 37.277344 56.371094-14.890625 10.667968-29.695312 20.175781-44.101562 28.628906-2.34375-.316406-4.671875-.496094-6.957032-.496094-1.578124 0-3.179687.105469-4.789062.261719 5.933594-11.628907 10.28125-24.113281 10.28125-35.730469 0-34.4375-38.246094-77.4375-42.605469-82.226562-1.894531-2.078126-4.578125-3.265626-7.394531-3.265626s-5.5 1.1875-7.394531 3.265626c-4.359375 4.789062-42.605469 47.789062-42.605469 82.226562 0 22.589844 16.421875 48.4375 28.988281 64.917969-8.371093 6.421875-14.222656 11.761719-15.804687 13.234375-.339844.316406-.644532.660156-.933594 1.015625-17.40625 6.859375-33.851562 12.511719-48.8125 17.144531 10.878906-16.296875 20.5625-40.320312 20.5625-74.246094 0-75.613281-48.101562-103.167968-50.148438-104.304687-3.679687-2.039063-8.238281-1.5625-11.414062 1.199219-1.976562 1.722656-48.4375 42.835937-48.4375 103.101562 0 40.449219 20.914062 71.777344 35.304688 88.546875-16.523438 3.578125-26.304688 4.90625-26.59375 4.945313-5.476563.710937-9.335938 5.726562-8.6250005 11.199218.6562505 5.042969 4.9570315 8.714844 9.9062505 8.714844.429687 0 .863281-.027344 1.300781-.082031 2.96875-.386719 59.449219-8.015625 133.816406-37.355469 13.699219 11.679688 47.109375 37.4375 75.402344 37.4375 34.4375 0 77.433593-38.246094 82.222656-42.605469 2.082031-1.894531 3.269531-4.578125 3.269531-7.394531s-1.1875-5.5-3.269531-7.394531c-3.335937-3.039063-25.242187-22.53125-49.871094-34.070313 11.988281-7.480468 23.589844-15.304687 34.800781-23.457031 12.273438 7.796875 40.054688 23.605469 63.519532 23.605469 2.246094 0 4.457031-.148438 6.605468-.457032 30.058594-4.351562 62.464844-43.175781 66.058594-47.589843 1.769532-2.167969 2.546875-4.980469 2.144532-7.746094-.402344-2.773437-1.941407-5.246094-4.253907-6.824219-3.832031-2.621094-32.546875-21.769531-59.3125-26.371094.546875-.578124 1.105469-1.144531 1.648438-1.726562 6.816406-7.253906 13.386719-14.683594 19.71875-22.277344 10.066406 4.625 28.808593 12.058594 45.324219 12.058594 3.261718 0 6.433593-.289062 9.4375-.949219 23.683593-5.195312 46.933593-35.546875 49.503906-38.992187 1.761718-2.351563 2.394531-5.359375 1.734375-8.226563-.65625-2.863281-2.542969-5.292969-5.152344-6.640625-3.738281-1.933594-35.996094-18.140625-59.433594-14.832031 5.070313-8.230469 9.898438-16.613281 14.488281-25.144531 10.988282-.273438 40.804688-2.316406 54.644532-16.160156zm-113.007813-58.613282c9.28125 1.808594 20.792969 5.484375 27.054688 12.308594 6.804687 7.410156 12.953125 20.066406 17.164062 30.394531-11.757812-1.335937-26.238281-4.496093-32.429687-11.242187-6.683594-7.28125-10.164063-20.886719-11.789063-31.460938zm-37.347656 108.394532c-4.484375-8.320313-4.539063-24.507813-3.171875-37.839844 10.730469 5.398437 24.386719 13.796875 29.082031 22.511718 4.476563 8.304688 4.429688 24.3125 2.960938 37.441407-10.621094-5.214844-24.179688-13.414063-28.871094-22.113281zm-197.980469 117.945312c0-18.367188 17.746094-44.632812 30.003906-60.011719 12.257813 15.363281 29.996094 41.597657 29.996094 60.011719 0 13.289062-9.324218 30.5-19.109375 44.695312-5.367187 2.625-10.578125 5.609376-15.464843 8.703126-11.648438-15.285157-25.425782-37.238282-25.425782-53.398438zm-89.929687-60.480469c11.101562 9.148438 33.929687 33.886719 33.929687 82.542969 0 37.871094-13.691406 60.78125-25 73.253906v-29.847656c0-5.511719-4.492187-10-10-10-5.511718 0-10 4.488281-10 10v25.238281c-11.574218-15.308593-25-39.371093-25-68.644531 0-39.550781 24.761719-70.484375 36.070313-82.542969zm164.4375 175.949219c-18.351563 0-44.175781-17.765625-59.210938-30 15.039063-12.234375 40.859375-30 59.210938-30 18.363281 0 44.621093 17.738281 60.003906 30-15.382813 12.261719-41.640625 30-60.003906 30zm33.574219-167.367188c-2.160157-14.933593 9.054687-38.355468 17.59375-53.027343 12.339843 11.632812 29.726562 30.894531 31.890624 45.867187 2.15625 14.914063-9.125 37.984375-17.683593 52.363282-12.285157-11.363282-29.644531-30.292969-31.800781-45.203126zm100.839843 75.800782c-14.148437 2.035156-35.636719-8.003906-50.078125-16.347656 12.738282-10.023438 24.914063-20.496094 36.503906-31.40625 2.195313-.828126 4.34375-1.429688 6.414063-1.730469 14.929687-2.15625 38.351563 9.058593 53.027344 17.59375-11.632813 12.339843-30.894531 29.722656-45.867188 31.890625zm109.003907-122.933594c-8.792969 9.535156-20.5625 19.769531-29.664063 21.765625-9.21875 2.023437-24.597656-2.421875-36.816406-7.441406 7.933593-8.777344 19.542969-19.5625 29.199219-21.679688 9.238281-2.027343 24.832031 2.371094 37.28125 7.355469zm16.269531-82.839844c-5.019531 5.023438-17.304688 8.070313-29.011719 9.457032 3.851562-8.324219 9.113281-17.839844 14.871094-23.597657 5.644531-5.648437 15.945312-8.777343 24.519531-10.378906-1.601563 8.574219-4.734375 18.875-10.378906 24.519531zm-8.195313-160.84375c5.300782 12.675782 10 26.507813 10 34.351563 0 7.703125-4.722656 19.738281-9.992187 30.328125-5.007813-10.027344-10.007813-22.214844-10.007813-30.328125 0-7.828125 4.699219-21.667969 10-34.351563zm-48.839844 46.863282c7.941407 1.246093 17.660157 3.929687 23.328126 9.207031 3.035156 8.558593 7.097656 16.851562 10.519531 23.199219.125.597656.242187 1.191406.351562 1.777343-8.574219-1.601562-18.875-4.734375-24.519531-10.378906-5.613281-5.613281-8.402344-15.609375-9.679688-23.804687zm0 0"/><path d="m55.003906 412c5.507813 0 10-4.488281 10-10s-4.492187-10-10-10c-5.511718 0-10 4.488281-10 10s4.488282 10 10 10zm0 0"/></svg>